<?xml version="1.0" encoding="UTF-8" standalone="no"?>
<svg width="64" height="64" viewBox="0 0 1024 1024" version="1.1" xmlns="http://www.w3.org/2000/svg">
  <rect width="1024" height="1024" fill="#1c1c1c" />
  <path d="M 803 779 L 800 782 L 802 784 Z M 435 780 L 433 777 L 430 780 Z M 542 637 L 538 645 L 536 653 L 537 657 L 540 648 L 544 641 L 544 639 Z M 359 627 L 357 632 L 358 635 L 360 633 L 361 629 Z M 478 627 L 481 634 L 478 639 L 482 646 L 486 658 L 487 652 L 481 634 L 483 631 L 481 627 Z M 553 620 L 549 624 L 552 627 L 555 622 Z M 470 619 L 468 622 L 470 626 L 472 627 L 474 624 Z M 654 613 L 658 618 L 660 616 L 656 611 Z M 632 612 L 633 614 L 637 614 Z M 367 610 L 365 614 L 367 616 L 369 613 Z M 404 607 L 401 608 L 399 611 L 401 613 L 403 611 Z M 779 605 L 776 612 L 781 607 Z M 242 607 L 246 611 L 249 611 L 244 605 Z M 370 606 L 373 608 L 378 601 Z M 644 600 L 650 608 L 652 605 L 648 601 Z M 610 597 L 608 603 L 611 605 Z M 664 591 L 662 592 L 664 594 Z M 788 585 L 787 586 L 786 585 L 785 588 L 787 590 L 789 588 Z M 619 582 L 619 586 L 624 585 Z M 611 583 L 615 592 L 617 589 L 613 583 Z M 412 583 L 410 583 L 407 589 L 409 591 Z M 404 582 L 401 585 L 403 587 Z M 531 572 L 531 596 L 533 594 L 533 574 Z M 345 575 L 353 575 L 352 573 L 346 573 Z M 655 571 L 658 573 L 665 572 L 663 570 Z M 362 573 L 365 573 L 368 571 Z M 642 571 L 646 572 L 648 570 L 643 569 Z M 492 568 L 490 571 L 490 594 L 492 596 Z M 373 570 L 375 573 L 381 571 L 380 569 Z M 547 558 L 546 562 L 549 567 L 552 562 L 551 560 Z M 477 557 L 472 560 L 471 563 L 474 566 L 477 562 Z M 403 558 L 406 561 L 405 564 L 407 563 L 408 561 L 406 558 Z M 618 556 L 616 560 L 617 563 L 621 565 L 624 560 Z M 538 544 L 536 547 L 540 551 L 540 546 Z M 512 538 L 510 540 L 511 569 L 513 567 Z M 698 515 L 700 516 L 702 514 Z M 317 513 L 320 515 L 325 515 L 320 512 Z M 584 513 L 589 518 L 596 522 L 586 511 Z M 439 508 L 432 516 L 429 522 L 441 510 Z M 793 506 L 788 511 L 790 512 L 794 509 Z M 722 508 L 720 506 L 718 508 L 714 509 L 716 512 Z M 302 509 L 306 512 L 310 510 L 304 506 Z M 699 507 L 701 509 L 703 506 Z M 322 505 L 321 508 L 323 510 L 325 507 Z M 268 511 L 266 509 L 261 508 L 257 504 L 252 503 L 250 505 L 251 506 L 248 509 L 251 512 L 249 514 L 246 514 L 242 511 L 237 514 L 241 516 L 249 516 L 256 514 L 251 511 L 253 509 L 258 509 L 260 511 L 258 513 L 260 514 L 266 513 Z M 756 511 L 758 513 L 773 516 L 786 514 L 779 511 L 776 514 L 772 515 L 769 512 L 771 510 L 775 509 L 770 502 L 768 502 L 762 508 Z M 293 502 L 298 503 L 296 501 Z M 764 501 L 762 499 L 759 502 Z M 386 500 L 383 499 L 375 503 L 380 504 L 386 502 L 385 501 Z M 261 499 L 260 502 L 265 503 Z M 636 499 L 636 501 L 638 503 L 643 503 L 644 504 L 648 503 L 638 498 Z M 788 497 L 786 498 L 788 501 Z M 236 497 L 236 500 L 239 499 Z M 739 495 L 737 496 L 739 498 Z M 294 492 L 294 497 L 297 498 L 299 496 Z M 807 488 L 804 489 L 806 492 L 799 497 L 801 499 L 809 490 Z M 269 484 L 274 486 L 272 484 Z M 207 487 L 214 491 L 222 498 L 224 496 L 217 491 L 219 489 L 214 488 L 212 486 L 214 484 L 210 484 Z M 807 483 L 814 489 L 816 487 L 811 483 Z M 797 482 L 800 484 L 802 482 Z M 226 482 L 220 482 L 224 485 L 223 488 L 225 486 L 224 484 Z M 852 477 L 850 479 L 852 481 L 851 482 L 853 480 Z M 172 476 L 170 478 L 170 480 L 172 482 L 172 485 L 174 486 L 171 481 L 174 478 Z M 249 468 L 253 469 L 255 467 L 258 470 L 261 467 L 259 465 L 256 468 L 251 464 Z M 851 460 L 849 461 L 851 467 L 853 465 Z M 173 459 L 171 461 L 172 465 L 175 461 Z M 551 456 L 551 466 L 553 465 L 554 462 Z M 473 456 L 471 457 L 470 460 L 473 462 L 474 459 Z M 355 456 L 362 460 L 372 462 L 373 460 L 369 458 Z M 670 455 L 665 455 L 652 459 L 656 462 Z M 512 452 L 510 455 L 513 458 Z M 320 450 L 319 452 L 321 454 L 322 452 Z M 706 450 L 703 450 L 700 455 Z M 306 443 L 313 448 L 315 446 L 310 440 Z M 539 434 L 539 439 L 541 436 Z M 484 434 L 482 435 L 482 437 L 484 439 Z M 561 433 L 558 433 L 557 436 L 558 439 Z M 464 432 L 463 435 L 465 438 Z M 762 414 L 766 412 L 766 409 Z M 257 408 L 257 412 L 262 413 Z M 735 407 L 733 409 L 733 415 L 736 410 Z M 264 407 L 263 410 L 265 412 L 266 409 Z M 759 406 L 757 409 L 757 413 L 761 408 Z M 740 399 L 737 401 L 740 403 Z M 404 399 L 401 400 L 401 406 L 403 407 L 405 402 Z M 337 397 L 341 399 L 340 397 Z M 231 398 L 236 400 L 236 398 L 234 396 Z M 787 395 L 789 401 L 793 398 Z M 283 394 L 281 397 L 283 403 L 286 401 L 284 399 Z M 782 394 L 780 392 L 777 393 L 775 398 Z M 244 392 L 243 396 L 249 397 Z M 240 383 L 240 387 L 242 385 Z M 783 382 L 781 385 L 783 386 L 785 384 Z M 634 379 L 635 382 L 638 384 L 641 382 L 636 378 Z M 391 379 L 389 377 L 381 382 L 384 385 Z M 249 371 L 256 376 L 253 370 Z M 632 368 L 635 371 L 639 371 L 638 370 L 639 369 L 636 367 Z M 391 370 L 390 367 L 382 369 L 383 371 L 386 372 Z M 777 360 L 771 368 L 768 377 L 775 369 L 774 366 Z M 610 358 L 609 362 L 617 367 L 619 364 Z M 412 358 L 407 362 L 406 364 L 408 366 L 413 362 L 414 360 Z M 276 356 L 276 363 L 279 359 Z M 747 355 L 744 359 L 747 362 Z M 801 345 L 792 347 L 785 352 L 787 354 L 791 350 L 795 349 L 797 351 L 797 354 L 795 356 L 796 360 L 799 360 Z M 222 346 L 224 359 L 226 361 L 230 361 L 232 359 L 225 352 L 228 349 L 230 349 L 236 353 L 236 350 L 225 345 Z M 275 330 L 275 335 L 276 334 L 277 335 L 278 333 Z M 748 329 L 747 332 L 748 333 Z M 700 329 L 704 330 L 703 329 L 704 328 Z M 535 315 L 531 326 L 531 332 L 537 316 Z M 484 313 L 483 315 L 485 317 L 491 331 L 494 333 L 488 313 Z M 207 304 L 205 305 L 206 309 Z M 382 304 L 383 307 L 386 307 L 390 309 L 393 308 L 394 306 L 389 305 L 386 303 Z M 639 294 L 637 292 L 635 292 L 629 300 L 634 298 Z M 384 293 L 389 298 L 395 299 L 387 291 Z M 797 277 L 795 279 L 803 284 L 813 294 L 812 298 L 817 302 L 813 290 L 804 281 Z M 229 278 L 226 277 L 222 279 L 211 289 L 207 296 L 207 302 L 211 298 L 210 296 L 215 293 L 213 291 L 219 285 L 225 282 Z M 652 272 L 650 271 L 648 273 L 648 277 L 651 276 Z M 551 260 L 549 259 L 546 260 L 537 269 L 527 286 L 524 296 L 533 280 L 544 268 L 549 265 Z M 471 260 L 470 265 L 473 268 L 480 268 L 490 280 L 499 294 L 491 276 L 483 265 L 476 259 Z M 657 240 L 660 243 L 660 239 Z M 363 243 L 366 240 L 362 240 Z M 552 202 L 558 211 L 561 208 L 555 202 Z M 473 200 L 470 200 L 462 208 L 465 210 Z" fill="#4d2215" stroke="#4d2215" stroke-width="0.5" stroke-linejoin="round" stroke-linecap="round" />
  <path d="M 512 622 L 510 624 L 513 632 Z M 313 624 L 315 625 L 317 623 Z M 474 616 L 472 620 L 475 622 L 477 620 Z M 551 614 L 546 620 L 549 622 L 552 617 Z M 399 603 L 397 605 L 399 609 Z M 410 600 L 408 601 L 408 604 L 410 606 Z M 579 596 L 577 596 L 575 604 L 577 602 L 576 600 Z M 583 589 L 582 594 L 584 592 Z M 440 589 L 439 592 L 445 597 L 446 602 L 449 605 L 447 603 L 448 600 L 447 597 Z M 556 585 L 551 591 L 552 595 L 555 597 L 559 593 L 559 588 Z M 680 571 L 684 574 L 690 571 L 685 569 Z M 332 571 L 339 574 L 341 571 L 339 569 Z M 310 565 L 317 571 L 318 569 L 315 565 L 313 566 Z M 628 562 L 628 565 L 633 567 L 638 567 L 634 563 Z M 396 564 L 392 562 L 388 565 L 387 568 L 394 566 Z M 400 561 L 403 563 L 405 561 Z M 449 561 L 446 563 L 445 560 L 442 562 L 440 569 L 441 574 L 439 576 L 440 581 L 440 575 L 442 573 L 443 567 L 445 565 L 448 565 Z M 735 560 L 733 558 L 730 559 L 727 562 L 729 564 L 731 562 L 734 562 Z M 572 561 L 575 565 L 576 564 L 580 567 L 583 582 L 584 576 L 581 562 L 578 559 L 579 561 L 576 564 Z M 288 560 L 292 562 L 295 561 L 290 558 Z M 546 556 L 545 561 L 547 563 L 549 560 Z M 475 555 L 479 556 L 477 554 Z M 567 545 L 566 549 L 571 554 L 572 551 L 574 550 L 577 551 L 574 545 L 569 544 Z M 454 544 L 449 545 L 447 549 L 447 553 L 449 551 L 451 551 L 453 553 L 452 557 L 457 550 L 456 545 Z M 371 544 L 374 549 L 377 544 L 375 546 Z M 646 542 L 646 548 L 648 547 L 649 548 L 651 546 L 651 543 L 648 547 L 646 545 Z M 616 529 L 625 538 L 627 538 L 629 536 L 629 534 L 627 532 L 623 532 L 619 529 Z M 407 529 L 404 529 L 400 532 L 396 532 L 394 534 L 394 536 L 396 538 L 398 538 Z M 462 527 L 456 535 L 456 537 L 459 540 L 461 540 L 467 532 Z M 463 530 L 465 532 L 460 538 L 458 535 Z M 466 523 L 469 526 L 469 529 L 472 524 Z M 552 523 L 551 525 L 561 540 L 564 540 L 567 537 L 567 535 L 559 526 L 560 528 L 557 531 L 554 526 L 559 523 L 557 521 Z M 561 530 L 565 535 L 562 537 L 558 533 Z M 685 520 L 689 521 L 694 519 L 692 517 L 689 517 Z M 331 520 L 334 521 L 338 520 L 339 518 Z M 425 515 L 420 517 L 415 521 L 413 525 Z M 709 512 L 706 511 L 702 513 L 704 515 Z M 759 510 L 757 512 L 759 514 Z M 244 511 L 247 513 L 249 511 L 247 509 Z M 757 503 L 760 506 L 764 505 L 766 503 L 764 502 L 760 504 Z M 259 502 L 259 505 L 257 507 L 253 508 L 254 512 L 259 512 L 261 514 L 264 514 L 266 512 L 267 508 L 263 511 L 259 511 L 257 509 L 260 506 L 264 507 L 264 505 Z M 290 497 L 289 499 L 292 502 L 294 500 Z M 674 496 L 669 495 L 665 498 L 660 496 L 657 497 L 663 503 L 670 497 Z M 349 496 L 354 497 L 358 502 L 361 503 L 365 498 L 361 497 L 358 498 L 354 495 Z M 309 484 L 309 488 L 317 493 L 324 494 L 328 491 L 319 487 L 317 487 L 314 490 L 312 488 L 313 485 Z M 536 482 L 538 484 L 539 491 L 543 500 L 540 507 L 543 513 L 547 514 L 543 510 L 541 505 L 544 503 L 550 514 L 554 516 L 547 505 L 541 490 Z M 487 482 L 482 490 L 483 491 L 478 499 L 475 507 L 473 509 L 471 516 L 477 505 L 480 502 L 483 503 L 480 499 L 482 496 L 482 492 L 485 488 L 484 487 L 485 484 Z M 278 463 L 278 467 L 282 470 L 284 470 L 289 475 L 292 474 L 296 475 L 288 468 L 286 469 L 280 464 L 280 461 Z M 748 461 L 742 462 L 743 464 L 741 466 L 735 468 L 727 475 L 711 484 L 711 488 L 708 490 L 705 487 L 700 488 L 695 491 L 699 494 L 703 494 L 712 490 L 714 488 L 714 485 L 717 482 L 731 474 L 733 475 L 740 469 L 741 470 L 747 466 L 745 464 Z M 330 461 L 332 464 L 334 464 L 336 462 L 333 459 Z M 689 463 L 691 464 L 695 461 L 692 458 Z M 627 460 L 635 461 L 641 459 L 631 458 Z M 374 456 L 377 459 L 380 460 L 387 460 L 388 461 L 394 460 L 389 457 Z M 419 456 L 414 453 L 411 455 L 409 459 L 411 460 Z M 600 454 L 613 460 L 617 461 L 620 460 L 611 453 L 603 452 Z M 318 452 L 320 454 L 325 455 L 324 454 L 325 451 Z M 798 450 L 795 450 L 793 453 Z M 226 451 L 230 454 L 230 451 Z M 767 447 L 762 448 L 753 455 L 752 458 L 757 454 L 760 454 Z M 259 446 L 258 449 L 263 454 L 265 453 L 271 456 Z M 773 440 L 774 443 L 778 442 L 778 440 L 776 438 Z M 249 438 L 245 439 L 246 443 L 248 444 L 250 442 Z M 693 433 L 691 431 L 675 445 Z M 331 432 L 343 442 L 346 442 L 335 433 Z M 725 429 L 722 429 L 719 432 L 720 436 Z M 298 429 L 299 432 L 304 437 L 307 435 L 304 431 Z M 319 416 L 317 414 L 314 416 Z M 265 413 L 264 416 L 266 414 Z M 290 410 L 288 413 L 291 416 L 294 415 L 292 413 L 292 410 Z M 741 387 L 743 390 L 744 388 Z M 256 377 L 255 379 L 259 382 Z M 745 361 L 744 363 L 748 365 Z M 275 354 L 272 360 L 275 360 L 277 362 L 277 365 L 279 363 L 276 361 L 277 357 Z M 508 330 L 504 335 L 504 342 L 507 349 L 505 354 L 505 360 L 502 363 L 500 373 L 500 380 L 504 394 L 509 404 L 513 409 L 514 404 L 520 392 L 522 385 L 523 374 L 519 363 L 519 356 L 517 352 L 517 346 L 519 342 L 519 335 L 515 330 Z M 746 330 L 748 338 L 750 335 L 750 332 Z M 274 328 L 273 336 L 275 339 L 276 330 Z M 552 263 L 548 266 L 550 268 L 552 267 Z" fill="#8b402a" stroke="#8b402a" stroke-width="0.5" stroke-linejoin="round" stroke-linecap="round" />
  <path d="M 404 860 L 416 858 L 406 858 Z M 632 857 L 630 858 L 630 861 L 633 860 Z M 749 856 L 745 859 L 747 861 L 750 860 Z M 348 856 L 350 860 L 350 858 Z M 377 844 L 379 860 L 379 848 Z M 749 836 L 746 837 L 746 849 L 744 851 L 736 842 L 731 846 L 729 844 L 729 861 L 732 860 L 732 848 L 734 846 L 741 854 L 745 851 L 749 852 Z M 729 836 L 729 842 L 734 839 Z M 699 836 L 692 841 L 690 845 L 690 852 L 695 859 L 699 861 L 708 861 L 712 859 L 716 853 L 716 844 L 711 838 L 707 836 Z M 701 839 L 708 840 L 712 844 L 713 847 L 712 853 L 707 858 L 700 858 L 694 852 L 695 843 Z M 677 836 L 674 837 L 676 844 L 678 842 Z M 663 836 L 644 839 L 647 838 L 652 841 L 655 860 L 655 841 Z M 631 836 L 629 837 L 629 842 L 632 845 L 633 841 Z M 599 837 L 601 839 L 606 839 L 612 843 L 613 852 L 607 858 L 599 858 L 597 856 L 597 844 L 593 843 L 594 861 L 607 861 L 612 859 L 617 853 L 617 845 L 615 841 L 606 836 Z M 563 837 L 564 861 L 580 858 L 569 858 L 567 856 L 567 852 L 569 850 L 578 847 L 569 847 L 566 843 L 569 839 L 579 836 Z M 513 837 L 521 849 L 526 860 L 526 852 L 535 839 L 533 836 L 525 848 L 516 836 Z M 491 837 L 492 861 L 507 858 L 496 858 L 494 856 L 493 836 Z M 478 836 L 462 837 L 461 848 L 462 861 L 465 860 L 464 855 L 467 851 L 477 848 L 467 848 L 465 846 L 465 841 L 467 839 Z M 429 838 L 430 842 L 430 861 L 433 860 L 433 855 L 435 853 L 439 853 L 446 861 L 449 860 L 445 855 L 445 853 L 449 849 L 448 840 L 441 836 Z M 434 837 L 436 839 L 441 839 L 445 842 L 445 847 L 442 850 L 435 850 L 433 848 L 432 839 Z M 399 837 L 399 850 L 402 852 L 404 850 L 414 847 L 404 847 L 402 845 L 402 841 L 404 839 L 415 836 Z M 381 837 L 383 839 L 387 836 Z M 368 839 L 374 839 L 376 837 Z M 339 839 L 345 839 L 347 841 L 348 851 L 350 848 L 350 841 L 358 836 Z M 327 840 L 327 836 L 325 839 Z M 306 837 L 306 853 L 307 856 L 313 861 L 323 860 L 327 856 L 328 853 L 327 842 L 325 843 L 323 855 L 320 858 L 314 858 L 310 853 L 309 836 Z M 273 837 L 274 861 L 289 861 L 293 859 L 295 855 L 293 852 L 288 858 L 279 858 L 277 856 L 277 852 L 279 850 L 289 851 L 293 846 L 293 840 L 290 837 L 287 836 Z M 277 841 L 279 839 L 287 839 L 290 842 L 290 844 L 287 847 L 279 847 L 277 845 Z M 642 809 L 645 808 L 643 806 Z M 467 808 L 465 806 L 463 808 Z M 552 805 L 552 809 L 555 808 Z M 479 808 L 483 808 L 480 807 Z M 376 808 L 381 808 L 378 805 Z M 364 805 L 363 809 L 366 807 Z M 274 808 L 279 808 L 276 805 Z M 724 739 L 722 740 L 724 742 Z M 638 740 L 641 743 L 644 740 Z M 584 739 L 582 740 L 584 742 Z M 549 740 L 552 743 L 555 740 Z M 494 739 L 492 740 L 494 742 Z M 480 743 L 483 740 L 479 740 Z M 271 740 L 275 743 L 278 740 Z M 512 634 L 510 635 L 511 643 L 514 646 L 511 648 L 507 646 L 510 650 L 513 650 L 516 646 L 516 644 L 513 640 Z M 485 634 L 483 637 L 486 645 L 489 649 L 488 645 L 490 643 Z M 541 633 L 538 639 L 540 637 L 539 635 Z M 658 626 L 657 633 L 658 636 L 662 637 L 661 629 Z M 365 626 L 363 627 L 361 631 L 363 638 L 366 634 Z M 648 623 L 648 629 L 651 633 L 652 625 L 651 623 Z M 374 622 L 371 626 L 372 633 L 375 628 Z M 757 618 L 759 619 L 761 617 Z M 548 616 L 546 616 L 545 618 L 546 619 L 544 621 L 545 626 L 548 623 L 545 620 Z M 653 614 L 652 616 L 657 619 Z M 473 611 L 472 615 L 476 617 L 478 620 L 476 625 L 479 624 L 479 621 L 477 619 L 478 618 L 476 614 Z M 405 608 L 404 610 L 408 615 L 410 613 L 409 608 L 407 610 Z M 643 602 L 647 611 L 644 614 L 646 615 L 648 613 L 647 611 L 648 608 L 645 602 Z M 684 599 L 704 619 L 706 623 L 705 625 L 707 627 L 712 626 L 713 623 L 710 619 L 706 619 L 686 598 Z M 709 620 L 711 622 L 711 624 L 708 626 L 706 623 Z M 311 626 L 317 623 L 320 618 L 339 599 L 317 619 L 313 619 L 311 621 Z M 315 621 L 317 624 L 314 626 L 312 623 Z M 532 597 L 529 601 L 531 599 L 534 603 L 531 605 L 528 604 L 530 606 L 533 606 L 535 604 L 535 600 Z M 492 597 L 488 604 L 490 606 L 493 606 L 495 604 L 495 600 Z M 492 600 L 494 603 L 491 605 L 489 602 Z M 557 596 L 552 599 L 555 600 L 557 599 Z M 296 591 L 294 597 L 295 601 L 298 602 L 299 598 Z M 727 590 L 725 593 L 724 599 L 727 601 L 729 599 Z M 686 589 L 697 596 L 689 588 Z M 337 589 L 333 589 L 325 596 L 328 597 L 334 590 Z M 653 588 L 669 602 L 689 622 L 693 632 L 693 642 L 690 645 L 691 647 L 690 648 L 693 651 L 695 651 L 698 648 L 698 645 L 695 641 L 695 632 L 691 622 L 670 601 L 672 599 L 667 598 L 659 591 L 661 589 L 657 587 Z M 694 644 L 696 647 L 693 649 L 691 647 Z M 370 588 L 366 587 L 361 589 L 363 591 L 356 598 L 352 600 L 334 619 L 329 628 L 328 641 L 325 645 L 325 648 L 327 650 L 332 650 L 333 648 L 332 643 L 330 641 L 329 632 L 331 630 L 334 622 L 354 602 Z M 329 644 L 332 647 L 329 649 L 327 646 Z M 501 585 L 511 597 L 512 595 L 505 587 Z M 512 578 L 511 581 L 518 589 L 521 597 L 522 593 L 513 581 Z M 607 573 L 608 590 L 604 608 L 604 617 L 607 625 L 616 633 L 644 639 L 661 649 L 669 648 L 671 643 L 669 628 L 662 612 L 657 605 L 649 597 L 637 588 L 616 577 L 609 572 Z M 611 579 L 622 595 L 623 602 L 625 606 L 627 604 L 630 607 L 633 608 L 615 582 L 618 580 L 629 587 L 639 596 L 641 594 L 655 607 L 663 619 L 667 630 L 668 640 L 664 645 L 658 644 L 653 640 L 643 636 L 640 633 L 636 634 L 633 631 L 632 628 L 631 631 L 628 633 L 623 632 L 621 630 L 620 627 L 621 626 L 617 630 L 609 623 L 606 616 L 606 607 L 608 597 L 610 595 L 612 597 L 612 606 L 614 608 L 613 613 L 615 615 L 618 612 L 618 608 L 616 610 L 613 607 L 615 601 L 609 581 Z M 417 572 L 414 572 L 400 581 L 391 585 L 376 595 L 366 605 L 361 612 L 355 624 L 353 631 L 352 643 L 353 646 L 356 649 L 363 649 L 375 641 L 382 638 L 405 634 L 409 632 L 416 625 L 419 617 L 419 607 L 416 594 Z M 412 579 L 414 581 L 409 595 L 410 599 L 411 595 L 413 593 L 415 595 L 415 600 L 417 607 L 417 616 L 414 623 L 409 628 L 406 629 L 403 626 L 402 623 L 401 625 L 402 629 L 399 632 L 394 633 L 391 629 L 388 634 L 382 634 L 380 636 L 370 640 L 363 645 L 359 645 L 356 642 L 356 631 L 360 619 L 367 608 L 382 594 L 385 596 L 394 587 L 405 580 L 407 583 L 398 598 L 392 606 L 381 615 L 383 616 L 389 611 L 391 613 L 394 605 L 397 602 L 399 604 L 401 596 L 404 590 Z M 333 569 L 329 569 L 329 573 Z M 310 566 L 310 569 L 312 570 L 320 569 L 316 566 L 313 569 Z M 705 567 L 706 570 L 712 567 L 714 569 L 714 566 L 713 567 L 711 565 Z M 771 563 L 771 567 L 778 574 L 780 572 L 778 568 Z M 251 563 L 246 567 L 243 573 L 245 574 L 251 569 L 250 567 Z M 293 559 L 297 562 L 295 564 L 297 565 L 299 562 L 296 559 Z M 755 557 L 756 558 L 754 560 L 756 562 L 761 561 L 760 557 L 758 556 Z M 749 557 L 751 559 L 753 557 Z M 264 557 L 265 560 L 270 560 L 268 558 L 269 557 Z M 600 544 L 598 545 L 602 551 L 604 549 Z M 425 545 L 422 545 L 418 548 L 421 551 Z M 489 538 L 486 541 L 488 542 Z M 531 532 L 530 534 L 534 541 L 538 543 Z M 340 518 L 339 520 L 341 522 L 342 520 Z M 675 519 L 677 520 L 680 519 L 683 522 L 685 519 L 681 517 L 677 517 Z M 582 515 L 586 516 L 584 514 Z M 739 514 L 745 514 L 744 511 Z M 321 511 L 326 515 L 323 518 L 328 519 L 330 517 L 326 512 Z M 517 507 L 516 509 L 518 511 L 517 512 L 520 512 Z M 721 505 L 722 507 L 728 506 L 725 506 L 723 504 L 725 502 L 722 503 Z M 297 501 L 300 504 L 300 508 L 302 505 L 301 503 Z M 786 500 L 784 498 L 785 497 L 780 497 L 775 501 L 777 499 L 783 501 Z M 387 496 L 384 495 L 382 496 L 381 499 Z M 786 495 L 792 495 L 790 493 Z M 231 495 L 237 496 L 239 498 L 239 501 L 246 499 L 247 500 L 234 493 Z M 798 491 L 801 493 L 804 490 Z M 453 489 L 447 493 L 443 500 L 433 509 L 434 512 L 441 505 Z M 567 485 L 589 513 L 590 509 L 581 501 L 573 489 Z M 750 484 L 747 485 L 748 486 L 744 490 L 748 491 L 749 489 L 747 487 Z M 273 484 L 277 488 L 276 492 L 279 491 L 278 488 L 276 487 L 277 486 Z M 821 487 L 815 481 L 806 478 L 794 478 L 787 480 L 770 489 L 749 507 L 753 510 L 758 507 L 763 506 L 761 504 L 757 506 L 755 504 L 768 493 L 782 485 L 789 485 L 792 488 L 792 491 L 794 487 L 789 483 L 791 481 L 805 480 L 807 482 L 805 484 L 800 485 L 804 487 L 810 486 L 806 483 L 812 482 L 817 487 L 807 494 L 797 506 L 793 503 L 790 503 L 796 508 L 791 513 L 785 512 L 787 514 L 783 518 L 766 516 L 764 514 L 766 512 L 762 511 L 753 512 L 749 514 L 756 516 L 762 516 L 772 519 L 786 518 L 792 515 L 800 505 L 812 493 L 819 490 Z M 202 488 L 216 497 L 227 511 L 237 518 L 250 519 L 252 517 L 255 518 L 257 516 L 261 516 L 258 515 L 256 517 L 253 516 L 251 518 L 240 517 L 236 514 L 237 511 L 235 513 L 232 513 L 227 508 L 228 505 L 226 506 L 222 500 L 215 493 L 209 490 L 206 486 L 208 484 L 215 481 L 217 483 L 213 486 L 220 487 L 223 485 L 218 484 L 216 482 L 218 480 L 229 481 L 232 480 L 235 483 L 234 484 L 240 485 L 249 489 L 269 505 L 267 507 L 262 504 L 260 506 L 267 507 L 272 511 L 270 513 L 267 512 L 265 516 L 285 515 L 278 509 L 277 510 L 274 506 L 256 491 L 238 481 L 233 481 L 228 478 L 218 478 L 208 481 L 204 484 Z M 276 509 L 278 511 L 276 513 L 274 511 Z M 561 475 L 564 477 L 563 475 Z M 258 472 L 256 469 L 253 472 L 251 472 L 253 474 L 256 474 Z M 766 470 L 766 474 L 770 472 L 768 470 L 770 468 Z M 646 467 L 642 466 L 636 468 L 641 469 L 643 467 Z M 379 467 L 382 469 L 387 468 Z M 777 463 L 773 465 L 777 468 L 779 465 Z M 249 464 L 246 463 L 244 465 L 246 467 Z M 689 464 L 683 463 L 677 466 L 677 469 L 683 468 Z M 337 462 L 336 466 L 340 468 L 351 471 L 354 470 L 339 462 Z M 176 462 L 174 464 L 175 467 Z M 410 458 L 408 456 L 405 458 L 395 459 L 398 461 L 402 461 L 403 460 L 408 460 Z M 362 455 L 365 455 L 367 457 L 374 457 L 370 455 L 366 456 L 364 454 Z M 231 457 L 233 458 L 236 456 L 233 453 Z M 667 453 L 661 453 L 657 455 L 663 455 Z M 800 451 L 797 451 L 795 453 L 792 452 L 788 455 L 793 457 Z M 708 447 L 705 448 L 707 450 L 705 455 L 709 451 Z M 592 448 L 597 452 L 601 452 L 599 450 Z M 315 447 L 313 449 L 316 450 L 318 448 Z M 808 447 L 816 448 L 821 445 L 812 444 Z M 203 447 L 207 448 L 215 447 L 212 444 Z M 576 443 L 576 448 L 582 459 L 585 459 L 586 455 Z M 449 443 L 446 444 L 442 450 L 435 457 L 437 460 L 439 461 L 441 459 Z M 562 434 L 560 436 L 563 438 Z M 461 434 L 460 440 L 462 439 L 463 436 Z M 293 418 L 292 415 L 289 417 Z M 781 398 L 783 396 L 786 396 Z M 690 395 L 688 395 L 682 403 L 680 401 L 680 399 L 681 398 L 670 417 L 682 406 Z M 622 396 L 625 397 L 627 395 Z M 282 389 L 280 391 L 282 394 Z M 330 385 L 330 390 L 336 400 L 347 412 L 354 416 L 351 413 L 341 397 L 343 399 L 343 401 L 341 403 L 333 393 Z M 631 380 L 631 385 L 634 383 Z M 392 380 L 390 383 L 392 385 Z M 744 380 L 747 380 L 745 378 Z M 275 379 L 277 381 L 278 380 L 282 382 L 280 378 L 277 377 Z M 778 372 L 781 376 L 782 380 L 784 379 L 786 376 L 784 377 L 781 372 Z M 776 372 L 773 372 L 771 374 L 770 378 Z M 593 372 L 594 376 L 596 378 L 599 375 L 596 372 Z M 429 370 L 425 375 L 427 377 Z M 745 367 L 747 369 L 751 365 L 747 366 L 746 365 Z M 273 363 L 272 365 L 276 369 L 277 365 L 276 366 Z M 794 363 L 789 364 L 787 369 Z M 243 361 L 242 363 L 244 365 L 245 363 Z M 227 362 L 236 369 L 237 367 L 232 363 Z M 701 358 L 697 358 L 694 367 L 695 369 L 693 371 L 694 379 L 694 370 L 696 368 L 697 363 L 700 361 Z M 321 359 L 325 362 L 327 368 L 329 370 L 329 376 L 330 371 L 328 369 L 329 367 L 327 363 L 327 360 L 326 358 Z M 795 350 L 791 351 L 787 356 L 789 359 L 795 355 L 796 353 Z M 226 352 L 230 357 L 236 358 L 236 355 L 232 351 L 228 350 Z M 692 344 L 689 345 L 683 354 L 683 357 Z M 331 344 L 340 358 L 341 356 L 334 345 Z M 807 341 L 799 340 L 791 343 L 782 349 L 771 361 L 763 377 L 748 427 L 762 417 L 791 404 L 797 398 L 801 391 L 802 386 L 802 362 L 803 356 L 808 344 Z M 801 344 L 803 347 L 800 355 L 800 360 L 798 362 L 800 364 L 800 369 L 797 372 L 800 375 L 800 380 L 797 383 L 800 386 L 798 392 L 795 395 L 792 396 L 794 398 L 787 404 L 774 409 L 761 416 L 759 414 L 770 403 L 774 401 L 775 399 L 773 397 L 781 388 L 779 386 L 770 400 L 760 413 L 756 416 L 754 414 L 757 408 L 761 393 L 768 381 L 765 377 L 771 366 L 786 349 L 794 345 Z M 218 340 L 215 344 L 218 349 L 221 361 L 221 385 L 225 397 L 232 404 L 261 417 L 274 426 L 275 423 L 268 406 L 264 388 L 255 366 L 248 356 L 240 348 L 227 341 Z M 222 344 L 229 345 L 238 350 L 248 360 L 254 369 L 259 379 L 257 381 L 255 381 L 260 388 L 264 398 L 266 408 L 269 414 L 267 416 L 263 413 L 260 407 L 248 393 L 244 385 L 242 377 L 245 370 L 241 373 L 241 375 L 238 378 L 242 382 L 243 386 L 241 388 L 250 397 L 248 399 L 246 399 L 253 403 L 264 414 L 262 416 L 256 412 L 236 404 L 229 398 L 231 396 L 225 392 L 224 386 L 226 383 L 223 380 L 223 375 L 226 372 L 223 369 L 223 366 L 225 362 L 223 360 L 223 355 L 220 346 Z M 273 340 L 275 342 L 275 340 Z M 697 337 L 694 338 L 693 342 Z M 323 330 L 322 332 L 326 337 L 329 338 Z M 604 334 L 607 335 L 612 332 L 611 330 Z M 415 329 L 413 334 L 420 335 Z M 750 325 L 748 326 L 750 328 Z M 272 326 L 272 329 L 274 327 L 277 328 L 276 326 Z M 319 327 L 324 326 L 322 324 Z M 272 305 L 269 307 L 271 309 L 269 311 L 272 312 L 273 308 Z M 753 304 L 750 306 L 749 309 L 751 315 L 755 309 L 752 306 Z M 780 283 L 795 284 L 802 287 L 805 290 L 809 291 L 804 286 L 794 281 L 782 281 Z M 232 281 L 224 283 L 218 287 L 215 292 L 221 287 Z" fill="#a4624f" stroke="#a4624f" stroke-width="0.5" stroke-linejoin="round" stroke-linecap="round" />
  <path d="M 749 853 L 746 853 L 746 856 Z M 733 841 L 729 843 L 732 845 Z M 743 743 L 742 749 L 742 803 L 746 808 L 748 809 L 754 808 L 757 804 L 757 764 L 760 762 L 785 788 L 793 798 L 806 809 L 817 809 L 820 806 L 820 743 L 817 740 L 809 740 L 805 744 L 805 785 L 803 787 L 762 742 L 758 740 L 746 740 Z M 659 743 L 659 805 L 662 809 L 723 809 L 726 806 L 726 799 L 724 797 L 676 797 L 674 795 L 674 781 L 676 779 L 716 779 L 719 776 L 719 771 L 716 768 L 676 768 L 674 766 L 674 754 L 676 752 L 681 751 L 718 752 L 722 751 L 724 749 L 725 746 L 724 743 L 721 740 L 663 740 Z M 569 743 L 569 805 L 571 808 L 581 809 L 584 806 L 584 782 L 586 780 L 590 779 L 600 780 L 625 807 L 634 809 L 640 808 L 641 806 L 640 802 L 621 782 L 614 772 L 634 751 L 640 743 L 637 740 L 627 740 L 623 742 L 600 767 L 587 767 L 584 764 L 584 743 L 581 740 L 572 740 Z M 480 744 L 480 804 L 484 808 L 487 809 L 491 808 L 495 803 L 495 782 L 497 780 L 502 779 L 510 780 L 528 800 L 537 808 L 540 809 L 550 808 L 551 804 L 524 773 L 550 745 L 549 741 L 539 740 L 535 742 L 526 750 L 511 767 L 497 767 L 495 765 L 495 745 L 492 741 L 484 740 Z M 412 741 L 390 781 L 379 804 L 382 808 L 392 807 L 395 804 L 398 797 L 401 794 L 404 793 L 426 793 L 442 794 L 445 797 L 448 804 L 452 808 L 461 809 L 465 804 L 448 771 L 442 762 L 433 743 L 428 740 L 414 740 Z M 422 754 L 428 763 L 436 780 L 434 782 L 409 782 L 407 780 L 418 757 Z M 296 740 L 293 744 L 292 765 L 292 803 L 297 809 L 305 809 L 307 807 L 308 804 L 308 789 L 310 787 L 331 787 L 337 793 L 347 807 L 354 809 L 361 808 L 362 806 L 361 801 L 349 786 L 356 782 L 363 775 L 365 771 L 365 755 L 361 748 L 355 743 L 350 741 L 342 740 Z M 307 757 L 310 752 L 324 751 L 342 752 L 349 757 L 350 767 L 346 772 L 338 775 L 310 775 L 307 772 Z M 203 743 L 204 808 L 214 809 L 218 804 L 218 782 L 220 780 L 234 780 L 259 807 L 265 809 L 272 809 L 274 807 L 275 804 L 249 775 L 248 772 L 272 746 L 273 743 L 270 740 L 262 740 L 257 742 L 239 762 L 233 767 L 220 767 L 218 765 L 218 743 L 216 741 L 207 740 Z M 531 533 L 528 536 L 531 537 Z M 563 533 L 561 531 L 559 533 Z M 460 537 L 464 532 L 460 533 Z M 494 530 L 490 536 L 491 539 L 495 534 Z M 557 524 L 556 528 L 557 530 L 558 526 Z M 748 508 L 745 511 L 747 515 L 751 510 Z M 861 480 L 861 459 L 859 452 L 853 442 L 840 429 L 829 424 L 815 422 L 797 423 L 782 429 L 777 434 L 760 441 L 744 456 L 732 462 L 715 475 L 691 483 L 680 488 L 656 489 L 645 488 L 626 484 L 606 475 L 597 467 L 585 460 L 587 465 L 594 472 L 616 487 L 635 495 L 639 495 L 645 500 L 653 503 L 656 506 L 664 506 L 670 508 L 675 508 L 689 502 L 701 499 L 707 499 L 714 496 L 727 486 L 740 480 L 754 465 L 766 459 L 783 442 L 791 438 L 800 436 L 807 436 L 814 433 L 823 433 L 832 435 L 843 440 L 850 447 L 853 453 L 852 455 L 854 457 L 856 464 L 854 467 L 857 471 L 856 479 L 853 483 L 851 490 L 848 495 L 835 507 L 837 508 L 844 502 L 848 501 L 852 498 L 854 495 L 855 489 L 860 483 Z M 675 496 L 673 498 L 670 498 L 665 503 L 662 504 L 656 497 L 658 495 L 665 497 L 669 494 L 673 494 Z M 676 495 L 678 493 L 680 493 L 682 495 L 680 497 L 678 497 Z M 685 492 L 687 494 L 685 496 L 683 494 Z M 749 461 L 746 464 L 748 466 L 746 468 L 745 467 L 733 476 L 731 475 L 717 483 L 715 485 L 715 488 L 712 491 L 703 495 L 699 495 L 694 491 L 696 489 L 699 489 L 701 487 L 705 486 L 709 489 L 711 487 L 709 485 L 711 483 L 721 478 L 735 467 L 737 468 L 740 464 L 741 465 L 741 462 L 743 460 L 745 461 L 747 459 Z M 768 447 L 760 455 L 757 455 L 752 459 L 750 457 L 759 449 L 766 445 Z M 776 437 L 779 440 L 779 442 L 777 444 L 774 444 L 772 442 L 772 440 Z M 162 479 L 163 482 L 168 487 L 169 490 L 168 491 L 170 496 L 175 499 L 180 504 L 180 506 L 182 508 L 187 507 L 176 496 L 169 484 L 168 480 L 169 476 L 168 465 L 170 463 L 168 461 L 169 455 L 176 443 L 180 439 L 193 434 L 201 435 L 204 433 L 210 433 L 214 435 L 229 437 L 237 440 L 243 446 L 246 447 L 258 459 L 271 465 L 275 469 L 278 476 L 281 479 L 295 485 L 312 497 L 329 500 L 348 508 L 363 507 L 368 503 L 378 500 L 380 497 L 379 495 L 381 493 L 384 492 L 386 494 L 390 494 L 404 489 L 413 482 L 417 481 L 423 477 L 437 463 L 437 461 L 435 459 L 428 466 L 413 477 L 395 485 L 372 489 L 344 488 L 308 475 L 299 467 L 285 460 L 278 455 L 266 443 L 246 433 L 237 427 L 227 423 L 210 422 L 191 425 L 179 433 L 170 442 L 163 456 Z M 348 496 L 350 494 L 354 494 L 358 497 L 363 496 L 365 498 L 364 501 L 360 504 L 355 499 L 350 498 Z M 345 493 L 347 495 L 345 497 L 343 495 Z M 308 484 L 310 482 L 314 485 L 314 489 L 319 486 L 324 489 L 327 489 L 329 491 L 327 493 L 320 495 L 311 491 Z M 280 460 L 285 466 L 285 469 L 288 467 L 300 477 L 298 479 L 292 475 L 289 476 L 283 470 L 282 471 L 279 467 L 278 468 L 276 465 Z M 256 447 L 259 445 L 272 456 L 270 458 L 265 454 L 263 455 Z M 246 437 L 249 437 L 251 439 L 251 442 L 248 445 L 244 442 L 244 439 Z M 634 384 L 632 385 L 631 390 L 633 392 L 635 387 Z M 447 383 L 444 385 L 443 395 L 444 398 L 449 400 L 451 395 Z M 388 383 L 386 385 L 387 390 L 390 393 L 392 391 L 392 386 Z M 599 376 L 596 379 L 597 387 L 595 400 L 596 404 L 602 410 L 605 411 L 612 410 L 613 403 L 610 392 Z M 425 376 L 423 376 L 419 380 L 413 390 L 413 394 L 410 404 L 410 409 L 413 412 L 416 412 L 423 409 L 427 404 L 428 401 L 426 393 L 427 378 Z M 608 354 L 614 360 L 620 363 L 622 362 L 626 363 L 628 365 L 633 363 L 621 354 L 614 352 L 611 352 Z M 414 354 L 412 352 L 406 353 L 399 356 L 391 363 L 395 365 L 399 364 L 401 362 L 405 362 L 411 358 Z M 659 307 L 647 310 L 642 310 L 640 308 L 630 311 L 615 322 L 612 326 L 612 331 L 617 332 L 625 327 L 642 323 L 657 314 L 660 311 Z M 363 308 L 363 311 L 366 314 L 379 322 L 393 325 L 406 332 L 411 332 L 413 330 L 412 326 L 404 318 L 394 311 L 384 308 L 380 309 L 377 307 L 375 309 L 372 309 L 370 307 L 366 306 Z M 211 284 L 209 284 L 203 292 L 203 295 L 205 298 L 211 288 Z M 809 283 L 816 293 L 817 297 L 820 297 L 819 289 L 815 284 Z M 669 281 L 666 281 L 662 283 L 660 281 L 650 287 L 640 295 L 643 297 L 657 296 L 664 292 L 668 288 L 670 284 Z M 354 283 L 354 285 L 357 289 L 365 295 L 380 296 L 383 294 L 363 281 L 361 283 L 356 281 Z M 802 575 L 801 569 L 794 555 L 784 545 L 771 538 L 763 536 L 741 535 L 729 538 L 716 539 L 697 543 L 681 543 L 658 540 L 652 538 L 644 533 L 628 527 L 618 521 L 604 510 L 585 490 L 574 473 L 573 466 L 567 458 L 568 457 L 566 454 L 567 450 L 563 440 L 560 439 L 557 444 L 555 442 L 556 438 L 555 436 L 557 434 L 556 431 L 559 421 L 569 412 L 579 398 L 580 384 L 576 381 L 572 395 L 574 397 L 572 403 L 558 415 L 552 417 L 547 421 L 543 430 L 542 441 L 540 443 L 538 441 L 536 435 L 536 430 L 533 427 L 531 418 L 533 394 L 541 377 L 555 364 L 558 357 L 559 349 L 566 330 L 568 328 L 569 324 L 577 316 L 579 310 L 577 309 L 575 310 L 566 321 L 560 324 L 552 332 L 543 345 L 541 343 L 547 333 L 554 326 L 558 320 L 573 306 L 577 300 L 581 289 L 582 282 L 581 274 L 576 283 L 554 305 L 546 315 L 541 323 L 537 333 L 530 342 L 531 344 L 526 351 L 526 357 L 523 360 L 521 359 L 520 363 L 522 366 L 524 374 L 523 385 L 521 392 L 515 404 L 514 409 L 511 411 L 509 409 L 506 399 L 501 389 L 499 380 L 500 368 L 503 364 L 504 360 L 503 356 L 500 359 L 498 357 L 495 346 L 490 340 L 482 323 L 475 312 L 448 284 L 442 275 L 441 284 L 445 299 L 449 305 L 471 327 L 479 337 L 482 343 L 480 345 L 470 331 L 462 323 L 458 321 L 449 311 L 443 307 L 449 321 L 454 325 L 461 339 L 465 351 L 466 359 L 469 365 L 482 377 L 489 391 L 492 407 L 492 417 L 485 442 L 483 444 L 481 442 L 481 433 L 477 422 L 470 416 L 464 415 L 458 408 L 452 404 L 450 406 L 451 409 L 455 413 L 458 414 L 464 421 L 465 431 L 468 436 L 468 441 L 466 443 L 463 439 L 459 442 L 457 451 L 455 453 L 456 457 L 455 460 L 451 466 L 447 477 L 438 490 L 420 509 L 405 521 L 391 529 L 377 534 L 370 539 L 351 542 L 328 543 L 281 535 L 269 535 L 256 537 L 242 543 L 229 555 L 223 567 L 221 579 L 223 594 L 227 604 L 245 621 L 255 626 L 265 626 L 275 622 L 282 622 L 288 619 L 292 613 L 291 611 L 292 605 L 283 615 L 277 618 L 265 620 L 253 617 L 246 612 L 243 612 L 236 606 L 233 600 L 233 592 L 230 588 L 230 574 L 233 568 L 243 555 L 249 551 L 257 548 L 267 548 L 271 546 L 286 546 L 294 549 L 301 549 L 309 552 L 333 557 L 362 557 L 369 555 L 378 550 L 383 550 L 395 547 L 404 540 L 411 537 L 433 514 L 432 511 L 430 512 L 428 510 L 444 497 L 443 495 L 449 487 L 451 488 L 453 486 L 458 477 L 465 470 L 471 453 L 473 451 L 475 453 L 475 462 L 477 464 L 477 476 L 473 493 L 461 519 L 454 528 L 454 530 L 444 546 L 442 554 L 439 558 L 436 566 L 435 577 L 435 592 L 439 608 L 447 622 L 460 636 L 468 648 L 473 661 L 473 674 L 471 680 L 465 687 L 453 692 L 447 692 L 436 687 L 433 684 L 432 687 L 438 694 L 446 696 L 449 698 L 455 699 L 465 697 L 473 691 L 483 678 L 483 675 L 481 673 L 480 656 L 478 649 L 464 627 L 454 605 L 453 584 L 455 566 L 466 548 L 470 536 L 481 525 L 484 516 L 489 509 L 497 493 L 498 487 L 503 476 L 504 469 L 507 465 L 507 461 L 509 459 L 509 452 L 512 448 L 514 450 L 515 461 L 518 466 L 519 474 L 528 498 L 537 512 L 542 525 L 552 535 L 553 540 L 563 558 L 568 563 L 569 566 L 568 572 L 570 583 L 570 596 L 568 609 L 544 652 L 541 670 L 542 678 L 551 692 L 558 697 L 572 698 L 580 696 L 587 693 L 591 688 L 590 684 L 575 692 L 567 691 L 557 686 L 553 682 L 550 675 L 550 661 L 555 648 L 564 635 L 576 622 L 584 608 L 586 597 L 588 593 L 588 577 L 587 566 L 579 549 L 578 543 L 570 529 L 564 522 L 550 492 L 546 474 L 546 467 L 549 462 L 548 453 L 550 451 L 553 455 L 555 463 L 559 471 L 564 475 L 566 481 L 571 486 L 572 485 L 581 496 L 580 498 L 583 502 L 585 501 L 594 509 L 591 512 L 591 515 L 603 529 L 611 536 L 622 541 L 630 547 L 645 550 L 663 558 L 691 557 L 723 549 L 729 549 L 737 546 L 753 546 L 756 548 L 766 548 L 778 553 L 787 563 L 793 573 L 793 587 L 791 593 L 788 596 L 789 599 L 787 606 L 782 611 L 777 612 L 774 615 L 761 620 L 746 618 L 732 610 L 733 616 L 740 622 L 749 623 L 756 626 L 767 626 L 781 619 L 797 603 L 800 597 Z M 575 603 L 577 605 L 575 607 L 573 605 Z M 448 603 L 450 605 L 448 607 L 446 605 Z M 576 599 L 578 602 L 576 604 L 574 601 Z M 578 594 L 580 596 L 577 600 L 575 598 Z M 583 588 L 585 590 L 585 592 L 582 595 L 580 593 Z M 440 588 L 448 597 L 449 602 L 447 604 L 445 602 L 444 597 L 438 592 L 438 590 Z M 440 574 L 442 576 L 442 580 L 440 582 L 438 580 L 438 576 Z M 576 569 L 578 571 L 576 573 L 574 571 Z M 573 559 L 576 563 L 580 560 L 582 562 L 585 576 L 585 581 L 583 583 L 581 581 L 581 575 L 578 566 L 576 565 L 575 566 L 571 561 Z M 444 558 L 446 560 L 446 562 L 449 561 L 451 563 L 448 566 L 444 567 L 443 573 L 441 575 L 439 573 L 439 569 L 441 562 Z M 579 557 L 581 559 L 579 561 L 577 559 Z M 675 548 L 677 550 L 675 552 L 673 550 Z M 668 547 L 670 549 L 667 551 L 665 549 Z M 357 547 L 359 549 L 356 551 L 354 549 Z M 663 546 L 665 548 L 662 550 L 660 548 Z M 361 546 L 363 548 L 361 550 L 359 548 Z M 365 545 L 367 547 L 365 549 L 363 547 Z M 573 543 L 578 551 L 576 553 L 574 551 L 571 553 L 572 554 L 570 556 L 566 551 L 565 546 L 569 543 Z M 450 543 L 454 543 L 458 546 L 458 550 L 452 558 L 450 556 L 452 553 L 448 552 L 446 549 Z M 651 542 L 653 544 L 649 549 L 647 547 Z M 370 544 L 372 542 L 376 545 L 378 543 L 380 546 L 374 550 L 371 547 Z M 646 541 L 648 544 L 646 546 L 644 543 Z M 384 541 L 386 543 L 384 545 L 382 543 Z M 383 538 L 385 540 L 383 542 L 381 540 Z M 462 526 L 468 532 L 465 537 L 461 541 L 459 541 L 455 537 L 455 535 Z M 471 522 L 473 524 L 469 530 L 467 528 L 468 526 L 465 523 Z M 557 520 L 568 535 L 568 537 L 564 541 L 561 541 L 558 538 L 551 526 Z M 603 520 L 605 518 L 621 530 L 627 531 L 630 534 L 630 536 L 627 539 L 625 539 L 619 532 Z M 601 515 L 603 517 L 601 519 L 599 517 Z M 426 515 L 416 524 L 404 532 L 398 539 L 396 539 L 393 536 L 393 534 L 396 531 L 400 531 L 407 527 L 424 513 Z M 481 507 L 483 509 L 478 515 L 476 513 Z M 482 491 L 484 493 L 481 500 L 484 503 L 482 505 L 480 503 L 478 505 L 474 514 L 471 517 L 469 515 L 474 507 L 480 493 Z M 539 486 L 542 490 L 548 505 L 555 516 L 553 518 L 549 514 L 545 505 L 542 506 L 548 514 L 545 516 L 542 513 L 539 507 L 539 503 L 542 499 L 537 488 Z M 484 486 L 486 488 L 483 492 L 481 490 Z M 538 483 L 540 485 L 538 487 L 536 485 Z M 485 483 L 487 485 L 485 487 L 483 485 Z M 537 480 L 539 482 L 537 484 L 535 482 Z M 486 480 L 488 482 L 486 484 L 484 482 Z M 472 350 L 475 353 L 473 355 L 470 352 Z M 804 274 L 795 269 L 789 269 L 785 271 L 782 269 L 768 269 L 753 277 L 739 293 L 732 309 L 731 319 L 727 334 L 725 358 L 721 378 L 714 394 L 705 408 L 699 415 L 698 418 L 693 423 L 677 435 L 650 449 L 631 453 L 612 453 L 619 457 L 635 456 L 649 457 L 652 455 L 655 455 L 658 453 L 666 451 L 678 452 L 697 437 L 721 407 L 721 403 L 732 373 L 734 358 L 734 328 L 737 315 L 741 309 L 743 300 L 747 290 L 751 286 L 761 282 L 768 277 L 777 275 L 780 272 L 786 271 L 805 281 Z M 694 433 L 675 446 L 673 444 L 691 430 Z M 237 271 L 234 269 L 227 270 L 221 274 L 220 276 L 221 279 L 223 277 L 233 274 Z M 239 271 L 245 273 L 247 275 L 254 276 L 261 281 L 263 281 L 270 285 L 277 293 L 280 300 L 279 301 L 281 304 L 281 308 L 288 324 L 289 330 L 289 360 L 291 365 L 292 376 L 297 387 L 301 404 L 304 410 L 316 424 L 320 427 L 324 435 L 338 447 L 347 453 L 350 452 L 355 454 L 371 453 L 380 456 L 405 457 L 413 453 L 386 452 L 363 445 L 339 430 L 324 417 L 309 393 L 302 376 L 293 317 L 290 305 L 285 294 L 276 283 L 268 275 L 263 272 L 255 269 L 248 268 L 242 269 Z M 330 432 L 332 430 L 350 444 L 348 446 L 340 441 Z M 674 254 L 666 256 L 661 259 L 658 263 L 656 270 L 659 272 L 663 270 L 674 259 L 675 257 Z M 348 255 L 348 257 L 359 269 L 367 271 L 365 263 L 360 257 L 350 254 Z" fill="#cb5b39" stroke="#cb5b39" stroke-width="0.5" stroke-linejoin="round" stroke-linecap="round" />
  <path d="M 479 651 L 481 653 L 480 655 L 482 657 L 481 664 L 482 673 L 484 675 L 485 667 L 484 661 L 481 656 L 482 654 Z M 469 633 L 473 639 L 474 637 L 472 634 Z M 556 630 L 552 632 L 551 637 Z M 741 624 L 749 628 L 756 628 L 757 629 L 763 628 L 756 627 L 749 624 L 743 623 Z M 288 621 L 285 621 L 282 623 L 275 623 L 269 626 L 260 628 L 266 629 L 273 626 L 281 625 Z M 564 614 L 561 615 L 559 619 L 559 623 Z M 567 609 L 565 609 L 565 612 Z M 732 608 L 729 609 L 729 611 L 732 613 Z M 344 559 L 353 559 L 355 558 L 353 559 Z M 720 552 L 717 553 L 714 552 L 710 554 L 713 555 Z M 415 551 L 412 555 L 415 557 L 416 553 Z M 639 551 L 642 553 L 659 558 L 648 552 Z M 298 551 L 311 556 L 318 556 L 328 559 L 333 558 L 329 558 L 327 556 L 313 554 L 301 550 Z M 761 550 L 767 551 L 776 555 L 792 573 L 789 567 L 778 554 L 766 549 Z M 261 550 L 257 549 L 251 551 L 243 556 L 232 571 L 232 575 L 240 563 L 247 556 L 256 551 Z M 729 550 L 731 551 L 733 549 L 735 550 L 754 548 L 737 547 Z M 270 548 L 286 549 L 290 551 L 294 550 L 286 547 Z M 607 535 L 611 539 L 618 542 L 623 546 L 634 551 L 637 550 L 630 548 L 622 542 Z M 416 535 L 404 541 L 395 548 L 383 551 L 378 551 L 361 559 L 370 558 L 377 554 L 394 550 L 412 539 Z M 690 504 L 683 505 L 681 508 L 688 504 Z M 529 504 L 535 514 L 538 524 L 550 538 L 551 544 L 556 551 L 559 558 L 567 567 L 568 565 L 562 558 L 552 540 L 551 535 L 541 525 L 536 512 L 531 504 Z M 330 502 L 338 507 L 343 507 L 338 504 L 334 504 Z M 851 501 L 846 502 L 844 505 Z M 709 500 L 700 501 L 705 502 L 707 500 Z M 169 498 L 178 506 L 179 504 L 175 500 Z M 498 496 L 496 496 L 490 509 L 487 512 L 482 525 L 471 536 L 469 544 L 456 566 L 454 584 L 455 605 L 464 623 L 465 621 L 460 611 L 456 606 L 458 568 L 471 546 L 472 540 L 486 523 L 487 517 L 493 508 Z M 522 488 L 524 490 L 524 494 L 527 496 Z M 730 487 L 727 487 L 721 491 L 713 499 L 722 494 Z M 293 487 L 304 496 L 313 500 L 315 499 L 319 500 L 308 496 L 295 486 Z M 281 481 L 285 484 L 291 485 Z M 446 477 L 443 478 L 436 488 L 417 507 L 401 519 L 387 526 L 373 531 L 368 535 L 360 537 L 329 538 L 317 537 L 310 535 L 303 535 L 287 531 L 262 531 L 241 538 L 229 549 L 219 566 L 217 576 L 217 585 L 221 600 L 224 606 L 241 622 L 255 627 L 242 620 L 226 604 L 222 594 L 220 579 L 222 567 L 228 555 L 242 542 L 256 536 L 269 534 L 281 534 L 328 542 L 341 542 L 370 538 L 377 533 L 391 528 L 402 522 L 420 508 L 437 490 Z M 575 473 L 586 490 L 604 509 L 618 520 L 628 526 L 644 532 L 652 537 L 658 539 L 681 542 L 697 542 L 716 538 L 729 537 L 741 534 L 753 534 L 771 537 L 781 542 L 795 555 L 802 569 L 803 575 L 801 597 L 798 603 L 781 620 L 767 627 L 773 627 L 782 622 L 799 606 L 803 598 L 803 592 L 806 584 L 805 572 L 799 555 L 783 539 L 771 534 L 758 531 L 739 531 L 729 534 L 700 538 L 682 538 L 658 535 L 650 532 L 644 528 L 635 526 L 630 522 L 621 518 L 604 506 L 586 487 L 578 474 Z M 548 470 L 547 474 L 548 481 L 552 495 L 565 522 L 571 529 L 579 543 L 580 549 L 588 566 L 589 577 L 589 593 L 587 597 L 585 608 L 577 622 L 565 635 L 556 648 L 551 661 L 551 675 L 554 682 L 557 685 L 567 690 L 575 691 L 590 683 L 592 685 L 592 688 L 587 694 L 580 697 L 572 699 L 561 699 L 556 697 L 550 692 L 541 678 L 540 670 L 542 662 L 541 658 L 542 657 L 540 659 L 538 667 L 538 674 L 540 679 L 539 686 L 545 693 L 556 700 L 559 701 L 575 701 L 587 696 L 592 691 L 597 682 L 599 675 L 598 669 L 594 669 L 594 672 L 590 679 L 583 685 L 577 688 L 569 688 L 560 684 L 555 679 L 553 665 L 558 650 L 566 639 L 575 630 L 590 604 L 591 597 L 594 590 L 594 576 L 592 572 L 591 560 L 588 556 L 587 551 L 580 536 L 575 530 L 573 525 L 564 512 L 562 506 L 555 494 L 551 484 Z M 475 470 L 470 491 L 460 509 L 459 514 L 453 521 L 449 529 L 444 535 L 440 543 L 439 548 L 433 557 L 430 574 L 429 589 L 432 597 L 432 603 L 437 613 L 447 628 L 455 636 L 465 649 L 470 661 L 471 667 L 468 678 L 461 685 L 451 689 L 437 684 L 432 678 L 428 667 L 426 666 L 424 669 L 425 679 L 427 685 L 431 691 L 439 698 L 453 702 L 460 702 L 471 698 L 482 689 L 484 683 L 482 681 L 474 691 L 467 697 L 455 700 L 438 695 L 431 687 L 431 685 L 433 683 L 436 686 L 447 691 L 453 691 L 465 686 L 470 680 L 472 674 L 472 661 L 467 648 L 459 636 L 446 622 L 438 608 L 434 592 L 435 566 L 437 560 L 441 554 L 443 546 L 446 540 L 453 530 L 453 528 L 460 519 L 464 509 L 470 499 L 476 476 Z M 761 464 L 757 464 L 754 466 L 740 481 L 733 486 L 741 482 L 757 466 Z M 771 457 L 767 458 L 763 463 Z M 793 440 L 789 440 L 783 443 L 775 451 L 773 456 L 780 449 Z M 222 438 L 229 440 L 236 444 L 255 460 L 263 464 L 275 476 L 279 478 L 274 469 L 271 466 L 258 460 L 246 448 L 243 447 L 237 441 L 229 438 L 226 439 L 224 437 Z M 831 437 L 840 441 L 849 447 L 843 441 Z M 195 436 L 191 437 L 189 436 L 180 440 L 177 443 L 177 446 L 181 442 L 192 436 Z M 203 435 L 211 435 L 212 436 L 210 434 Z M 321 434 L 337 449 L 340 449 L 327 439 L 323 434 Z M 864 478 L 864 461 L 862 450 L 860 446 L 850 433 L 843 426 L 833 421 L 820 418 L 796 419 L 785 423 L 778 427 L 774 431 L 757 438 L 742 453 L 726 461 L 714 472 L 709 474 L 701 475 L 679 484 L 652 485 L 627 481 L 618 476 L 608 473 L 603 469 L 600 469 L 606 474 L 623 482 L 630 484 L 656 488 L 680 487 L 691 482 L 715 474 L 732 461 L 744 455 L 760 440 L 777 433 L 782 428 L 797 422 L 815 421 L 829 423 L 840 428 L 849 436 L 858 448 L 861 458 L 863 460 L 863 479 L 856 489 L 856 494 L 860 488 Z M 159 460 L 159 478 L 165 492 L 169 495 L 167 491 L 168 490 L 167 487 L 162 482 L 161 479 L 161 461 L 162 456 L 167 445 L 179 432 L 187 426 L 194 423 L 212 421 L 227 422 L 241 428 L 246 432 L 266 442 L 278 454 L 285 459 L 299 466 L 308 474 L 340 486 L 363 488 L 379 487 L 398 483 L 414 475 L 403 477 L 393 482 L 386 482 L 372 485 L 345 484 L 339 481 L 329 479 L 324 476 L 318 475 L 311 472 L 296 460 L 288 457 L 267 438 L 248 429 L 243 424 L 229 419 L 205 418 L 190 421 L 179 427 L 169 437 L 165 443 Z M 719 414 L 711 420 L 700 435 L 692 441 L 686 449 L 702 435 L 705 430 Z M 409 411 L 410 413 L 413 413 Z M 301 409 L 303 413 L 309 419 L 309 421 L 321 430 L 303 409 Z M 614 407 L 613 410 L 608 413 L 612 414 L 615 410 Z M 572 401 L 570 402 L 569 405 Z M 297 394 L 296 397 L 297 400 L 301 405 L 299 403 L 300 401 Z M 612 393 L 614 403 L 615 400 Z M 560 392 L 553 399 L 556 402 L 561 397 Z M 461 394 L 462 397 L 468 402 L 470 400 L 469 396 L 464 392 Z M 582 390 L 578 402 L 570 412 L 560 421 L 560 425 L 562 421 L 570 416 L 581 403 L 583 399 Z M 385 387 L 382 393 L 385 395 L 388 392 Z M 637 386 L 635 388 L 634 392 L 636 394 L 640 393 L 640 390 Z M 442 382 L 440 389 L 440 399 L 442 403 L 452 415 L 456 417 L 461 423 L 464 424 L 462 419 L 450 409 L 449 406 L 452 403 L 455 404 L 451 399 L 447 402 L 443 398 L 442 389 L 443 385 L 446 382 Z M 418 381 L 416 381 L 416 384 Z M 602 380 L 610 388 L 608 384 Z M 388 363 L 390 364 L 394 359 L 390 360 Z M 737 344 L 735 344 L 736 355 Z M 628 341 L 627 344 L 629 346 L 635 345 L 636 342 L 634 340 Z M 387 342 L 389 345 L 392 346 L 394 345 L 394 341 Z M 457 334 L 456 339 L 457 348 L 455 355 L 456 370 L 459 374 L 470 379 L 476 385 L 485 401 L 490 418 L 491 407 L 488 391 L 481 377 L 468 365 L 465 359 L 464 351 L 460 339 Z M 567 332 L 563 340 L 560 349 L 559 357 L 556 364 L 542 377 L 534 394 L 532 410 L 532 418 L 534 422 L 535 411 L 538 399 L 543 393 L 546 386 L 552 380 L 563 374 L 566 371 L 569 365 L 569 357 L 567 351 L 568 337 Z M 740 315 L 737 318 L 738 320 L 737 321 L 739 319 L 738 317 Z M 664 309 L 662 307 L 660 308 L 661 311 L 648 322 L 654 318 L 662 315 L 664 312 Z M 359 309 L 359 312 L 362 315 L 366 316 L 370 319 L 373 319 L 366 315 L 362 311 L 361 307 Z M 202 295 L 201 302 L 203 306 L 204 299 Z M 581 294 L 574 306 L 559 320 L 555 326 L 548 333 L 544 339 L 543 344 L 551 332 L 560 323 L 566 320 L 575 309 L 580 306 L 582 299 Z M 442 294 L 441 296 L 444 305 L 454 317 L 462 322 L 471 331 L 476 339 L 481 343 L 478 337 L 470 327 L 448 305 Z M 597 289 L 595 295 L 594 311 L 596 309 L 595 307 L 599 299 L 599 291 Z M 671 278 L 668 279 L 671 282 L 671 284 L 667 292 L 674 284 L 673 279 Z M 349 281 L 352 288 L 358 293 L 363 295 L 353 285 L 353 283 L 356 280 L 354 279 Z M 817 280 L 805 269 L 796 265 L 787 264 L 764 265 L 754 270 L 733 293 L 730 299 L 727 309 L 727 316 L 724 321 L 723 327 L 722 350 L 719 362 L 719 367 L 713 385 L 700 408 L 696 413 L 679 429 L 665 436 L 661 440 L 648 445 L 630 448 L 603 447 L 593 442 L 591 444 L 599 449 L 615 452 L 638 451 L 647 449 L 657 445 L 683 430 L 697 418 L 716 388 L 717 383 L 720 378 L 723 364 L 726 334 L 730 319 L 731 309 L 738 293 L 751 278 L 759 272 L 768 268 L 781 268 L 783 270 L 784 269 L 786 270 L 789 268 L 798 269 L 805 274 L 807 279 L 806 281 L 808 283 L 811 282 L 815 283 L 820 289 L 820 292 L 822 294 L 819 301 L 820 308 L 823 304 L 823 295 L 821 287 Z M 205 281 L 201 289 L 202 292 L 204 288 L 209 283 L 213 284 L 219 278 L 220 274 L 227 269 L 234 268 L 238 271 L 242 268 L 248 267 L 261 270 L 268 274 L 284 291 L 291 305 L 297 334 L 298 348 L 303 376 L 310 393 L 325 417 L 339 429 L 350 435 L 359 442 L 377 449 L 395 452 L 418 451 L 425 449 L 432 445 L 429 442 L 423 446 L 407 448 L 395 448 L 376 445 L 367 442 L 353 433 L 346 430 L 334 421 L 327 414 L 314 392 L 307 375 L 306 365 L 303 359 L 302 351 L 303 344 L 300 333 L 299 316 L 295 308 L 292 296 L 288 289 L 272 272 L 257 265 L 252 265 L 251 264 L 225 266 L 219 269 Z M 597 263 L 595 265 L 595 269 L 598 284 L 600 282 L 600 275 Z M 327 254 L 326 256 L 329 260 L 329 263 L 331 267 L 333 264 L 332 260 Z M 679 251 L 677 250 L 672 251 L 671 254 L 674 253 L 676 255 L 676 257 L 666 270 L 680 257 Z M 346 250 L 343 253 L 343 256 L 345 259 L 351 261 L 347 257 L 347 255 L 353 253 L 349 250 Z M 701 249 L 697 249 L 697 252 L 692 259 L 693 262 Z M 435 240 L 432 242 L 426 256 L 426 263 L 423 277 L 424 298 L 429 316 L 432 316 L 432 311 L 429 304 L 428 297 L 428 266 L 431 261 L 432 252 L 436 243 Z M 627 235 L 627 239 L 629 237 Z M 391 236 L 401 242 L 403 239 L 396 234 L 393 234 Z M 335 227 L 333 229 L 333 233 L 337 237 L 340 237 L 342 235 L 342 231 L 338 227 Z M 689 226 L 686 226 L 681 230 L 680 235 L 682 237 L 687 237 L 690 235 L 692 231 Z M 442 229 L 445 224 L 441 226 Z M 672 218 L 670 216 L 661 218 L 655 221 L 656 225 L 659 223 L 670 220 Z M 352 217 L 353 220 L 361 223 L 365 223 L 367 221 L 363 218 L 355 216 Z M 708 188 L 705 196 L 690 208 L 692 210 L 698 208 L 709 197 L 712 201 L 713 209 L 712 221 L 709 227 L 711 229 L 714 224 L 718 208 L 718 201 L 713 188 Z M 314 186 L 310 189 L 306 201 L 306 215 L 309 221 L 311 230 L 316 240 L 320 241 L 320 238 L 315 228 L 311 215 L 312 200 L 314 198 L 325 208 L 332 211 L 334 209 L 331 205 L 328 204 L 321 198 Z M 509 168 L 502 170 L 496 174 L 490 176 L 469 192 L 458 206 L 461 205 L 474 195 L 476 198 L 470 206 L 460 228 L 458 237 L 459 251 L 462 261 L 468 274 L 486 302 L 490 312 L 496 334 L 496 338 L 494 340 L 490 334 L 487 325 L 472 302 L 448 276 L 445 269 L 443 267 L 440 268 L 441 275 L 442 274 L 445 277 L 449 284 L 476 312 L 483 323 L 494 344 L 495 348 L 498 351 L 498 355 L 500 358 L 503 355 L 505 350 L 505 347 L 502 341 L 503 334 L 509 328 L 514 328 L 519 332 L 521 336 L 521 342 L 518 349 L 520 356 L 523 359 L 525 357 L 525 351 L 529 347 L 531 340 L 536 333 L 540 323 L 545 315 L 553 305 L 575 283 L 579 275 L 582 274 L 582 267 L 578 268 L 574 277 L 550 303 L 537 324 L 531 338 L 529 340 L 527 337 L 533 311 L 535 309 L 539 299 L 547 288 L 559 267 L 563 256 L 565 243 L 564 232 L 562 225 L 553 205 L 548 199 L 551 197 L 567 211 L 583 234 L 592 255 L 596 256 L 596 252 L 592 242 L 583 226 L 583 224 L 568 205 L 555 192 L 531 175 L 518 169 Z M 520 308 L 522 310 L 520 312 L 518 310 Z M 503 307 L 505 309 L 503 311 L 501 309 Z M 551 258 L 554 261 L 555 264 L 554 266 L 549 270 L 545 270 L 541 272 L 532 284 L 526 296 L 523 306 L 521 308 L 520 304 L 521 298 L 529 279 L 537 267 L 545 259 Z M 474 257 L 480 260 L 493 277 L 503 301 L 504 306 L 502 308 L 500 306 L 498 298 L 488 279 L 482 272 L 478 270 L 474 270 L 469 266 L 469 261 Z" fill="#de734f" stroke="#de734f" stroke-width="0.5" stroke-linejoin="round" stroke-linecap="round" />
  <path d="M 400 852 L 400 861 L 402 861 L 404 858 Z M 349 851 L 347 854 L 349 856 Z M 289 850 L 293 851 L 291 849 Z M 677 844 L 675 846 L 678 859 Z M 631 844 L 629 845 L 632 856 Z M 598 837 L 595 837 L 594 841 L 596 842 Z M 431 840 L 432 841 L 435 838 Z M 380 837 L 377 837 L 375 839 L 378 844 Z M 440 700 L 443 702 L 447 702 L 444 700 Z M 587 698 L 575 702 L 580 702 Z M 545 695 L 548 698 L 551 698 Z M 483 691 L 470 701 L 478 696 Z M 599 683 L 597 683 L 589 697 L 594 692 Z M 590 655 L 593 661 L 594 668 L 597 667 L 599 669 L 600 666 L 598 661 L 592 654 Z M 433 655 L 427 658 L 424 663 L 424 667 L 426 665 L 429 667 L 430 661 Z M 490 646 L 489 648 L 490 655 L 489 669 L 485 681 L 484 689 L 489 681 L 492 672 L 493 657 L 492 650 Z M 535 644 L 532 647 L 530 663 L 531 664 L 532 675 L 534 681 L 537 685 L 538 681 L 535 674 L 533 660 L 534 651 L 533 646 Z M 458 644 L 461 648 L 464 649 L 462 646 Z M 475 639 L 478 644 L 479 642 L 478 640 Z M 551 633 L 549 633 L 540 651 L 541 653 L 540 654 L 542 652 L 543 648 Z M 269 629 L 272 630 L 280 627 L 273 627 Z M 556 623 L 554 625 L 552 631 L 556 627 Z M 467 623 L 466 625 L 470 631 L 473 632 Z M 797 611 L 794 611 L 784 623 Z M 589 607 L 584 615 L 582 622 L 587 615 Z M 459 603 L 458 607 L 460 610 Z M 728 602 L 725 603 L 726 610 L 731 616 L 728 611 L 728 609 L 731 606 L 730 603 Z M 297 602 L 293 604 L 296 611 L 295 612 L 298 608 Z M 565 600 L 562 613 L 566 606 Z M 552 598 L 553 600 L 556 600 Z M 470 596 L 467 600 L 469 601 L 471 599 Z M 241 586 L 239 586 L 240 591 Z M 556 583 L 553 583 L 553 587 Z M 470 583 L 467 584 L 470 588 L 471 585 Z M 678 572 L 679 574 L 682 574 Z M 668 571 L 663 575 L 666 576 L 668 575 Z M 344 571 L 341 574 L 345 574 Z M 354 572 L 355 575 L 357 576 L 365 575 L 358 574 L 357 571 Z M 786 570 L 790 577 L 790 581 L 791 578 L 789 576 L 790 574 L 788 570 Z M 695 571 L 693 569 L 690 573 L 687 574 L 692 574 Z M 651 570 L 651 572 L 653 574 L 658 575 L 653 571 L 654 570 Z M 715 565 L 713 566 L 713 569 L 715 568 Z M 463 564 L 460 565 L 459 568 L 460 571 Z M 623 563 L 626 567 L 633 570 L 640 571 L 642 569 L 642 567 L 639 566 L 638 569 L 629 567 L 626 564 L 628 562 L 625 561 Z M 399 561 L 396 562 L 398 564 L 396 566 L 390 568 L 388 570 L 384 567 L 385 564 L 382 568 L 382 570 L 387 571 L 389 569 L 391 570 L 396 568 L 400 564 Z M 559 561 L 562 566 L 564 573 L 565 567 L 562 562 Z M 739 558 L 736 559 L 737 560 L 736 563 L 738 562 Z M 262 558 L 262 561 L 265 561 Z M 710 557 L 707 556 L 700 557 L 696 559 L 700 560 Z M 275 558 L 273 558 L 272 561 Z M 408 556 L 408 558 L 412 559 L 414 558 L 410 554 Z M 541 554 L 541 559 L 546 569 L 550 572 L 553 571 L 552 568 L 550 570 L 544 562 L 543 556 L 545 554 Z M 637 553 L 646 556 L 639 552 Z M 481 552 L 478 554 L 480 556 L 479 562 L 473 570 L 471 568 L 471 572 L 474 572 L 478 568 L 482 561 Z M 603 551 L 603 553 L 606 557 L 611 560 L 615 559 L 615 555 L 607 549 L 605 549 Z M 418 554 L 420 551 L 418 549 L 417 552 Z M 228 550 L 225 551 L 224 555 Z M 785 540 L 795 547 L 789 541 Z M 532 539 L 532 543 L 536 544 Z M 480 534 L 475 537 L 473 540 L 473 544 Z M 542 532 L 548 541 L 549 538 L 547 535 Z M 370 532 L 356 535 L 360 536 L 368 534 Z M 255 532 L 248 533 L 246 536 L 253 532 Z M 763 531 L 766 531 L 768 533 L 770 532 L 775 535 L 778 535 L 775 533 L 774 534 L 771 533 L 769 531 L 767 532 L 765 530 Z M 734 531 L 731 530 L 725 532 L 729 533 Z M 663 521 L 671 522 L 681 521 L 678 518 Z M 340 520 L 343 522 L 351 522 L 359 518 L 342 518 Z M 587 517 L 586 519 L 600 532 L 606 534 Z M 399 519 L 403 516 L 400 517 Z M 439 514 L 432 521 L 420 530 L 417 534 L 419 535 L 431 525 Z M 694 515 L 695 518 L 698 518 L 696 516 L 697 514 Z M 457 512 L 454 516 L 454 519 L 456 517 Z M 517 511 L 521 524 L 527 535 L 529 529 L 519 511 Z M 711 509 L 708 510 L 710 512 L 708 516 L 712 513 Z M 505 509 L 495 526 L 495 530 L 497 533 L 502 524 L 505 515 Z M 494 510 L 492 510 L 490 513 L 489 519 Z M 311 510 L 311 513 L 313 515 L 319 516 L 313 512 L 315 510 Z M 183 510 L 187 512 L 197 511 L 191 508 Z M 849 505 L 844 506 L 843 505 L 837 509 L 829 509 L 825 511 L 836 512 L 847 507 Z M 527 505 L 532 516 L 535 517 L 529 505 Z M 700 504 L 697 503 L 690 505 L 687 508 L 689 506 L 692 507 Z M 602 503 L 604 505 L 608 506 L 605 503 Z M 395 503 L 368 506 L 360 509 L 363 510 L 380 508 Z M 320 503 L 331 507 L 335 506 L 324 502 Z M 626 502 L 638 507 L 657 510 L 663 509 L 660 507 Z M 736 497 L 734 498 L 735 499 L 733 503 Z M 287 500 L 291 502 L 288 499 Z M 288 487 L 292 490 L 295 490 L 292 487 Z M 737 486 L 731 487 L 727 490 L 726 493 Z M 161 485 L 160 487 L 167 499 L 172 504 L 176 505 L 168 498 Z M 864 485 L 862 485 L 859 490 L 857 497 Z M 757 480 L 756 485 L 758 483 Z M 683 481 L 676 481 L 674 483 L 668 483 L 673 484 L 675 482 L 679 483 Z M 267 480 L 265 481 L 265 483 L 267 483 Z M 760 467 L 757 467 L 750 476 Z M 305 466 L 315 473 L 320 473 Z M 720 465 L 717 465 L 706 471 L 705 474 L 714 471 Z M 260 465 L 268 472 L 274 475 L 263 465 Z M 845 461 L 848 463 L 847 461 Z M 329 457 L 327 454 L 324 457 L 321 457 L 328 459 Z M 696 460 L 700 459 L 702 455 L 699 457 L 698 454 L 695 455 Z M 681 453 L 676 453 L 664 460 L 647 466 L 650 467 L 658 465 L 677 456 Z M 342 453 L 344 455 L 363 464 L 373 467 L 376 466 L 359 460 L 344 452 Z M 829 447 L 833 450 L 839 451 L 831 446 Z M 278 447 L 288 456 L 293 457 L 287 452 Z M 194 447 L 188 448 L 184 451 L 186 452 Z M 749 444 L 745 446 L 732 457 L 742 452 Z M 163 443 L 161 446 L 162 447 L 160 449 L 160 452 L 162 449 L 161 448 Z M 800 440 L 796 440 L 791 442 L 788 445 L 785 446 L 784 449 L 791 444 Z M 165 442 L 168 438 L 165 439 Z M 360 437 L 363 439 L 368 440 L 365 438 Z M 665 436 L 662 436 L 651 442 L 650 441 L 648 444 L 652 441 L 659 440 Z M 580 433 L 584 440 L 588 444 L 590 444 L 593 441 L 584 434 Z M 444 432 L 429 441 L 434 445 L 439 440 Z M 846 428 L 851 433 L 857 442 L 861 444 L 856 436 Z M 727 428 L 724 427 L 726 430 L 725 432 L 718 438 L 716 436 L 714 439 L 716 441 L 718 441 L 726 433 Z M 296 428 L 297 429 L 296 431 L 303 440 L 306 441 L 307 438 L 305 439 L 298 432 L 297 429 L 299 427 Z M 246 426 L 252 430 L 256 430 L 248 425 Z M 704 435 L 713 425 L 706 430 Z M 309 424 L 313 429 L 321 435 L 319 431 L 314 426 Z M 783 423 L 780 423 L 768 429 L 762 435 L 774 430 Z M 787 422 L 789 420 L 791 420 Z M 327 412 L 332 419 L 338 421 Z M 555 414 L 559 411 L 556 412 Z M 576 412 L 581 406 L 576 409 Z M 442 406 L 444 409 L 447 410 L 445 407 Z M 738 403 L 736 404 L 738 406 L 738 411 L 732 418 L 734 419 L 740 408 L 740 405 Z M 617 403 L 616 410 L 612 415 L 603 414 L 611 418 L 616 417 L 618 414 Z M 285 403 L 283 405 L 283 407 L 286 412 L 285 413 L 288 415 L 284 408 L 284 406 L 286 404 Z M 552 399 L 550 401 L 549 407 L 556 403 Z M 471 399 L 467 403 L 474 407 L 475 405 Z M 626 397 L 623 400 L 624 406 L 627 409 L 630 409 L 632 407 L 632 402 L 628 397 Z M 627 400 L 629 402 L 627 404 L 625 402 Z M 408 397 L 405 404 L 405 413 L 408 417 L 411 418 L 415 417 L 419 413 L 416 415 L 411 415 L 408 411 Z M 398 395 L 395 396 L 391 403 L 392 408 L 396 409 L 399 405 L 401 397 Z M 747 388 L 743 392 L 741 390 L 740 392 L 743 394 L 746 391 L 745 390 Z M 382 387 L 379 390 L 378 395 L 381 398 L 384 398 L 385 396 L 381 393 Z M 639 387 L 641 390 L 641 393 L 636 396 L 641 398 L 645 395 L 645 391 Z M 459 386 L 457 387 L 458 394 L 460 398 L 464 400 L 461 397 L 460 394 L 464 391 L 467 392 Z M 565 385 L 562 387 L 558 393 L 560 391 L 562 393 L 562 399 L 566 391 Z M 732 382 L 725 400 L 726 403 L 731 391 Z M 547 389 L 553 382 L 547 386 Z M 290 377 L 289 380 L 292 391 L 294 394 L 295 391 L 293 388 L 292 380 Z M 582 375 L 580 376 L 579 379 L 583 384 L 584 391 L 585 384 Z M 443 376 L 440 376 L 439 380 L 440 383 L 438 385 L 439 389 L 439 384 L 445 379 Z M 630 373 L 645 382 L 649 381 L 649 379 L 646 375 L 634 372 Z M 393 373 L 388 372 L 380 374 L 376 376 L 374 380 L 380 381 Z M 570 365 L 568 371 L 570 369 Z M 608 364 L 618 373 L 620 376 L 621 381 L 618 385 L 606 381 L 611 386 L 619 388 L 622 387 L 624 385 L 623 376 L 614 366 L 611 364 Z M 415 364 L 412 364 L 402 373 L 399 379 L 399 384 L 401 387 L 405 388 L 413 384 L 414 381 L 407 385 L 405 385 L 403 383 L 403 377 L 405 373 Z M 453 358 L 452 367 L 454 370 L 455 367 Z M 627 355 L 632 358 L 636 363 L 634 365 L 638 367 L 644 366 L 634 357 Z M 396 355 L 393 355 L 389 357 L 379 366 L 386 367 L 389 365 L 387 363 L 388 361 Z M 603 350 L 606 353 L 611 351 L 609 349 Z M 411 350 L 415 354 L 420 350 Z M 628 346 L 626 344 L 627 341 L 624 340 L 619 341 L 616 343 Z M 394 340 L 396 342 L 396 344 L 391 348 L 385 346 L 381 347 L 370 355 L 364 362 L 358 377 L 358 389 L 360 396 L 364 403 L 372 411 L 384 420 L 390 433 L 403 434 L 409 433 L 424 426 L 432 415 L 425 421 L 416 426 L 404 429 L 396 429 L 387 414 L 376 406 L 369 399 L 364 388 L 364 378 L 366 371 L 370 364 L 383 352 L 392 347 L 402 345 L 406 343 L 404 341 Z M 751 336 L 749 342 L 751 340 Z M 739 322 L 736 336 L 737 339 L 739 336 L 740 326 Z M 660 318 L 656 318 L 652 321 L 646 323 L 644 326 L 650 324 Z M 429 317 L 428 319 L 438 340 L 440 349 L 442 352 L 443 339 L 440 329 L 434 316 L 431 318 Z M 359 315 L 365 320 L 379 326 L 381 325 L 385 326 L 382 326 L 366 317 Z M 725 312 L 723 316 L 724 319 L 726 316 Z M 270 312 L 273 315 L 273 312 Z M 824 304 L 819 310 L 818 323 L 821 320 L 825 309 Z M 668 304 L 662 306 L 666 311 Z M 357 312 L 358 309 L 361 306 L 356 304 L 355 309 Z M 600 303 L 597 304 L 595 307 L 593 305 L 587 322 L 582 332 L 580 340 L 581 351 L 583 349 L 589 331 L 595 320 L 595 317 L 598 311 L 597 309 L 599 307 Z M 595 307 L 597 309 L 594 311 L 592 309 Z M 754 306 L 756 304 L 755 301 L 752 304 Z M 269 301 L 267 302 L 267 305 L 269 307 L 271 305 L 271 303 Z M 199 295 L 198 308 L 200 315 L 205 323 L 206 321 L 204 308 L 201 305 Z M 771 287 L 767 286 L 764 288 L 762 293 L 765 292 Z M 674 286 L 667 293 L 663 295 L 662 298 L 670 294 L 674 290 Z M 268 287 L 271 291 L 275 293 L 273 290 Z M 349 285 L 348 287 L 353 294 L 358 297 L 363 298 L 353 290 Z M 252 287 L 258 292 L 262 291 L 254 285 Z M 601 282 L 598 285 L 596 284 L 596 290 L 600 292 L 602 288 Z M 675 275 L 671 277 L 675 280 Z M 348 275 L 348 281 L 352 277 Z M 735 290 L 744 281 L 749 274 L 739 282 L 736 286 Z M 654 277 L 661 273 L 656 273 Z M 359 272 L 364 275 L 370 276 L 369 274 L 364 272 Z M 330 267 L 329 269 L 331 275 L 333 300 L 337 312 L 342 320 L 353 330 L 366 337 L 386 342 L 390 339 L 387 337 L 369 332 L 359 327 L 347 317 L 342 308 L 339 298 L 338 276 L 336 267 L 334 265 L 331 268 Z M 461 264 L 464 270 L 465 268 L 463 264 Z M 769 263 L 787 263 L 788 264 L 793 263 L 787 261 L 775 261 Z M 227 264 L 231 265 L 246 264 L 249 262 L 236 261 Z M 695 261 L 694 262 L 691 259 L 689 262 L 686 272 L 685 292 L 683 303 L 676 317 L 664 327 L 654 332 L 636 337 L 634 339 L 638 343 L 632 348 L 644 355 L 653 364 L 658 373 L 659 388 L 655 398 L 633 418 L 627 429 L 613 428 L 607 426 L 589 415 L 602 428 L 614 433 L 631 434 L 633 433 L 637 423 L 647 413 L 651 411 L 661 400 L 665 389 L 665 376 L 662 367 L 657 359 L 651 353 L 637 344 L 641 341 L 648 340 L 664 334 L 674 327 L 681 320 L 687 310 L 690 300 L 692 276 Z M 680 260 L 675 262 L 673 267 Z M 343 260 L 350 267 L 357 270 L 348 261 Z M 442 258 L 440 261 L 440 267 L 445 266 Z M 581 257 L 579 262 L 580 266 L 583 267 L 584 264 Z M 597 256 L 594 258 L 592 256 L 591 259 L 594 265 L 598 263 L 599 260 Z M 646 254 L 642 252 L 630 253 L 620 259 L 613 265 L 614 268 L 621 262 L 632 257 L 642 256 L 644 259 L 644 270 L 641 277 L 628 293 L 612 309 L 611 313 L 614 310 L 627 304 L 634 302 L 639 302 L 644 300 L 640 296 L 638 296 L 633 300 L 627 302 L 625 300 L 640 285 L 648 272 L 649 259 Z M 377 254 L 374 259 L 374 268 L 376 274 L 383 285 L 398 300 L 396 302 L 388 299 L 385 296 L 383 296 L 378 300 L 396 304 L 413 312 L 384 280 L 379 270 L 379 261 L 383 257 L 391 257 L 402 262 L 409 267 L 410 265 L 399 256 L 393 253 L 381 252 Z M 666 255 L 670 252 L 667 253 Z M 677 249 L 682 254 L 683 252 L 680 248 Z M 346 249 L 342 249 L 342 253 Z M 322 239 L 317 244 L 325 255 L 325 258 L 327 261 L 332 256 Z M 327 253 L 329 255 L 327 257 L 325 255 Z M 405 238 L 401 243 L 411 252 L 414 251 L 415 247 Z M 679 235 L 678 237 L 682 238 Z M 664 234 L 654 236 L 651 239 L 653 237 L 660 238 L 662 240 L 660 248 L 668 240 L 668 237 Z M 355 237 L 357 243 L 364 247 L 361 242 L 361 240 L 363 238 L 371 239 L 373 238 L 374 239 L 370 236 L 361 234 L 357 235 Z M 713 228 L 711 230 L 708 227 L 706 229 L 693 252 L 693 255 L 696 252 L 699 255 L 701 252 L 697 249 L 700 247 L 702 249 L 710 237 Z M 689 225 L 692 228 L 693 231 L 694 226 L 692 224 Z M 330 225 L 329 227 L 330 233 L 336 237 L 332 233 L 332 229 L 335 226 L 338 226 L 343 231 L 343 235 L 340 238 L 345 238 L 345 232 L 339 225 L 337 224 Z M 654 221 L 650 221 L 626 233 L 613 242 L 608 247 L 609 251 L 611 253 L 618 246 L 625 242 L 626 240 L 624 237 L 627 234 L 631 238 L 641 232 L 652 228 L 655 226 L 653 224 Z M 367 220 L 366 226 L 371 227 L 390 236 L 395 232 L 371 220 Z M 334 208 L 333 214 L 342 218 L 352 220 L 351 217 L 353 215 L 336 207 Z M 693 212 L 690 207 L 670 215 L 673 218 L 672 221 Z M 466 203 L 458 207 L 455 204 L 451 208 L 437 228 L 432 241 L 435 239 L 439 240 L 452 218 Z M 442 224 L 444 226 L 444 228 L 442 230 L 440 228 L 440 226 Z M 703 194 L 700 198 L 704 201 L 704 204 L 706 202 L 706 200 L 703 197 Z M 710 178 L 708 180 L 708 187 L 712 186 L 715 187 Z M 314 177 L 309 185 L 309 189 L 312 186 L 316 185 Z" fill="#cf7a5d" stroke="#cf7a5d" stroke-width="0.5" stroke-linejoin="round" stroke-linecap="round" />
</svg>